<?xml version="1.0" encoding="utf-8"?>
<!-- Generator: Adobe Illustrator 16.0.0, SVG Export Plug-In . SVG Version: 6.00 Build 0)  -->
<!DOCTYPE svg PUBLIC "-//W3C//DTD SVG 1.1//EN" "http://www.w3.org/Graphics/SVG/1.1/DTD/svg11.dtd">
<svg version="1.1" id="Calque_1" xmlns="http://www.w3.org/2000/svg" xmlns:xlink="http://www.w3.org/1999/xlink" x="0px" y="0px"
	 width="1000px" height="1000px" viewBox="0 0 1000 1000" enable-background="new 0 0 1000 1000" xml:space="preserve">
<path fill-rule="evenodd" clip-rule="evenodd" fill="#FBF7F7" d="M198.274,674.182c-0.759,0.373-1.518,0.744-2.277,1.117
	c-2.507-0.771-2.532-0.797-1.341-1.855c2.904-2.58,6.216-4.779,7.799-8.561l0.104-0.145c1.262-0.162,1.756-0.971,1.818-2.146
	c0,0-0.044,0.049-0.043,0.049c4.245-3.336,7.511-7.443,9.756-12.355c0,0-0.07,0.098-0.069,0.098c2.29-1.346,3.848-3.213,4.236-5.92
	l-0.083,0.039c2.14-1.445,3.721-3.295,4.271-5.893c0,0-0.071,0.096-0.07,0.094c1.279-0.242,1.916-0.98,1.786-2.311l-0.035,0.045
	c2.813-2.063,5.082-4.543,6.133-7.961l-0.045,0.045c4.443-3.066,7.804-7.072,10.274-11.848l-0.045,0.08
	c1.709,0.275,2.232-1.277,3.068-2.158c5.031-5.289,9.923-10.711,14.937-16.018c18.342-19.414,36.015-39.531,57.704-55.455
	c13.066-9.594,26.785-17.889,43.052-20.912c1.826-0.07,3.653-0.145,5.48-0.211c4.786-0.176,5.667,0.943,4.144,5.546
	c-1.724,5.204-5.629,8.476-10.143,11.202c-7.63,4.609-16.26,6.713-24.481,9.838c-12.659,4.813-23.563,11.652-29.038,24.846
	c0.001,0-0.094,0.109-0.094,0.109l0.095-0.129c2.818-0.828,4.656-3.131,6.998-4.674c7.11-4.688,14.321-9.172,22.974-10.342
	c1.831-0.246,4.367-1.322,5.499,0.701c0.833,1.49-0.649,3.41-1.325,5.098c-2.961,7.395-8.818,12.793-13.142,19.244
	c-7.665,7.666-15.331,15.332-22.996,22.998c-7.854,6.322-15.709,12.645-23.564,18.967c3.813,0.252,7.027-0.65,10.274-0.797
	c14.585-0.664,25.239-8.793,35.292-18.164c0.604-0.246,1.315-0.359,1.795-0.754c14.538-11.973,28.141-25.139,44.997-34.102
	c6.634-3.527,13.277-6.678,20.85-7.604c-5.502,7.766-13.833,11.865-21.579,17.334c0.963,0.33,1.44,0.682,1.818,0.596
	c11.962-2.719,24.102-4.855,35.017-10.977c1.204-0.676,2.649-2.502,4.359-0.578c-2.241,5.268-5.513,9.832-9.407,14
	c-9.435,10.1-20.812,17.598-32.856,24.066c-34.124,18.322-70.945,30.162-106.89,44.104c-9.579,3.715-19.785,5.594-29.142,9.955
	l0.102-0.037c-4.348,0.398-8.466,1.523-12.197,3.869l0.136-0.014c-4.985,0.291-9.48,2.146-13.87,4.34l0.035-0.008
	c-1.652-0.031-3.196,0.225-4.317,1.613c0,0,0.043-0.006,0.042-0.006C201.841,672.01,199.836,672.434,198.274,674.182z"/>
<path fill-rule="evenodd" clip-rule="evenodd" fill="#DA5564" d="M234.137,662.484c9.357-4.361,19.563-6.24,29.142-9.955
	c35.945-13.941,72.766-25.781,106.89-44.104c12.045-6.469,23.421-13.967,32.856-24.066c3.895-4.168,7.167-8.732,9.407-14
	c1.43-1.029-0.441-2.734,0.775-3.811c1.271-1.16,2.747-2.172,2.965-4.094c0.629,0.008,1.258,0.014,1.888,0.02
	c2.975,4.281,2.397,8.371-0.655,12.332c-1.619,2.102-3.016,4.432-4.901,6.258c-2.511,2.434-1.61,3.846,1.509,5.266
	c-6.942-1.508-9.283,4.295-13.328,7c-2.093,1.4-1.69,2.664,0.213,4.17c9.981,7.904,20.658,14.494,32.915,18.301
	c19.165,5.955,31.869-1.207,35.734-20.809c2.365-11.998,2.831-24.307-0.265-36.199c-9.691-37.231-27.53-70.037-54.911-97.309
	c-7.216-7.188-15.451-13.127-25.366-16.293c-2.248-0.718-4.681-1.661-6.807-0.58c-9.028,4.591-18.042,9.119-23.874,18.135
	c-9.725,15.034-11.662,31.535-10.233,48.846c0.675,8.172,1.287,8.604,8.862,5.773c1.789-0.668,2.74-1.506,2.787-3.525
	c0.058-2.486,0.443-4.965,0.687-7.447c0.863-0.802,0.875-1.835,0.784-2.896l0.009-0.019c0.355,0.671,0.711,1.342,1.066,2.014
	c-0.247,3.143-1.636,6.824-0.47,9.303c1.711,3.637,5.992-0.07,8.989,1.173c0.588,0.244,1.313,0.161,1.974,0.229
	c1.074-2.546,0.259-5.184,0.376-7.776h-0.001c0.37,0.718,0.739,1.436,1.109,2.154c-0.017,0.935-0.035,1.869-0.052,2.803
	c-0.179,1.476-0.402,2.961,0.975,4.063c0.144,0.213,0.218,0.448,0.224,0.705c-0.403,0.77-0.806,1.539-1.208,2.308
	c-0.701,0.313-1.403,0.625-2.104,0.937c-4.274,0.639-8.709-1.252-12.892,0.821c-16.268,3.024-29.986,11.319-43.053,20.913
	c-21.689,15.924-39.362,36.041-57.704,55.455c-5.014,5.307-9.906,10.729-14.937,16.018c-0.836,0.881-1.359,2.434-3.068,2.158
	c1.682-5.025,5.934-8.076,9.291-11.748c15.973-17.471,31.347-35.529,48.817-51.566c13.603-12.486,27.943-24.016,45.161-31.326
	c3.002-1.275,2.307-3.462,1.896-5.824c-3.018-17.359-1.262-34.146,6.409-50.126c2.967-6.181,6.94-11.663,12.136-16.239
	c4.565-4.021,4.48-4.432-1.257-7.142c-13.647-6.447-27.393-12.698-40.487-20.245c-14.104-8.128-27.205-17.61-39.974-29.874
	c8.466,1.897,15.584,3.662,22.959,4.25c19.922,1.588,39.542-1.01,59.192-3.543c20.499-2.643,41.001-4.925,61.679-1.584
	c3.357,0.542,5.355,2.073,6.827,4.928c1.518,2.943,3.625,5.628,4.818,8.683c1.558,3.986,3.203,5.064,7.564,3.146
	c27.713-12.194,56.401-21.685,85.703-29.181c19.156-4.901,38.599-8.543,58.26-11.041c15.916-2.021,31.846-2.945,47.802-1.628
	c14.83,1.224,29.364,3.89,40.749,14.812c1.739,1.668,2.894,0.382,4.378-0.283c4.491-2.01,8.878-4.4,13.983-4.538
	c-2.063,2.373-5.172,2.589-7.815,3.745c-7.246,3.168-7.261,3.118-4.424,10.194c0.429,1.068,0.875,2.148,1.122,3.266
	c0.691,3.124,1.909,3.595,4.578,1.548c2.537-1.945,4.6-4.761,8.114-5.227c-1.91,4.092-6.464,5.304-9.261,8.474
	c-1.255,1.421-2.383,2.614-2.384,4.663c-0.001,20.67-9.345,37.692-21.343,53.537c-14.335,18.93-32.434,33.971-51.142,48.292
	c-23.825,18.237-47.778,36.308-71.688,54.435c-3.299,2.5-6.561,5.068-10.027,7.316c-2.803,1.818-3.313,3.639-1.42,6.461
	c2.213,3.301,3.983,6.898,6.202,10.197c4.351,6.465,3.606,12.666-0.146,19.117c-5.369,9.23-12.318,17.295-18.74,25.721
	c-16.693,21.9-31.203,45.328-47.624,67.41c-0.771,1.037-1.243,2.398-3.347,2.65c-0.851-5-1.982-9.994-2.512-15.055
	c-2.054-19.584-1.632-39.264-1.849-58.912c-0.042-3.783-1.448-4.771-4.6-3.943c-17.572,4.611-32.109-2.891-46.354-11.52
	c-4.828-2.924-9.561-6.021-13.65-9.971c-1.742-1.682-3.358-1.424-5.24-0.107c-24.314,17.004-51.905,27.07-79.412,37.266
	c-17.738,6.572-35.499,13.111-53.43,19.127C251.52,658.197,243.121,661.49,234.137,662.484z M312.165,409.432
	c1.386,0.061,2.799,0.261,3.978-0.763c1.324-0.094,2.648-0.188,3.973-0.282c6.745-0.012,13.49-0.025,20.235-0.037
	c0.564,0.011,1.129,0.023,1.693,0.034c0.735,0.007,1.47,0.014,2.206,0.021c8.623-0.102,17.246-0.205,25.869-0.307
	c0.006,0.404,0.012,0.809,0.018,1.213c-0.624,0.055-1.247,0.11-1.871,0.166c-12.717-0.003-25.433-0.006-38.149-0.009
	c-0.609,0.009-1.219,0.018-1.828,0.027c-3.055-0.041-6.166-0.766-9.09,0.757c-0.967,0.094-1.934,0.188-2.9,0.282
	c-1.156-0.179-2.282-0.229-3.167,0.743c-1.113,2.453,1.269,2.512,2.371,3.208c16.822,10.608,35.024,18.391,53.257,26.154
	c4.174,1.777,7.767,1.337,11.283-0.645c12.128-6.834,24.6-12.996,37.042-19.218c1.499-0.75,3.22-1.118,3.046-3.323
	c0.44-0.734,1.118-1.001,1.938-0.99c2.297,0.765,12.386-2.708,13.103-4.53c0.112-0.286,0.085-0.638,0.081-0.958
	c-0.068-6.039-8.335-15.492-14.306-16.283c-14.965-1.983-29.92-1.187-44.845,0.41c-21.999,2.352-43.874,6.309-66.136,5.15
	c-5.032-0.262-10.041-0.965-15.766-1.535c3.802,4.326,8.354,6.568,11.988,9.901c1.716,2.336,3.729,2.482,5.987,0.809
	L312.165,409.432z M467.183,680.422c-0.029,2.035-0.586,4.139,0.794,5.986c0.489,1.529-0.069,3.377,1.381,4.652
	c1.68-0.395,2.228-1.869,3.052-3.057c10.606-15.281,21.098-30.643,31.846-45.822c8.921-12.6,18.346-24.844,27.164-37.514
	c6.629-9.523,6.314-12.879-0.279-22.529c-1.406-2.059-3.045-3.984-4.223-6.164c-1.49-2.76-2.86-2.832-5.396-1.053
	c-2.604,1.826-2.862,3.281-0.613,5.348c0.902,0.828,1.347,1.875,1.519,3.061c-0.483,0.453-0.968,0.906-1.452,1.357l-0.017-0.068
	c-0.204-0.381-0.407-0.764-0.61-1.145c-2.26-4.121-4.684-4.441-8.568-1.41c-13.339,10.402-26.917,20.498-40.487,30.602
	c-2.907,2.164-4.208,4.635-4.235,8.344c-0.104,14.787-0.498,29.57-0.785,44.355c-0.682,2.041,1.082,2.912,2.002,4.186
	c-0.548,1.002-1.097,2.002-1.646,3.004c-0.6,2.686-1.133,5.365,0.558,7.887L467.183,680.422z M666.235,449.43l-0.049,0.057
	c10.714-13.724,17.136-29.195,17.367-46.664c0.147-11.15-5.427-19.6-15.279-25.085c-7.524-4.188-15.701-6.218-24.12-7.5
	c-1.972-1.538-4.499-1.261-6.622-1.331c-7.206-0.237-14.643-2.384-21.537,1.648c-8.32-1.826-16.609-0.429-24.831,0.579
	c-22.999,2.818-45.649,7.527-67.973,13.699c-10.545,2.915-21.122,5.816-31.195,9.829c-0.142,2.056,3.567,2.327,1.906,4.182
	c-1.481,1.655-2.78-0.825-4.073-1.466c-1.972-0.977-3.687-1.081-5.707-0.27c-11.349,4.556-23.024,8.225-34.217,13.25
	c-13.499,6.06-26.999,12.106-40.187,18.809c-7.136,3.626-14.069,7.651-21.971,11.977c14.362,4.148,24.676,12.423,34.083,22.001
	c18.953,19.298,31.667,42.574,42.467,67.042c8.073,18.291,12.128,37.256,10.067,57.381c-0.662,6.461-2.755,12.523-4.327,18.672
	c1.563,0.637,2.144-0.377,2.89-0.93c28.591-21.193,57.87-41.439,86.323-62.83c4.931-3.705,7.753-7.725,7.868-13.75
	c-0.088,2.34-0.549,4.898,2.987,5.127c10.371-7.752,20.702-15.559,31.122-23.244c19.945-14.714,39.448-29.924,55.899-48.652
	c2.668-3.037,5.087-6.161,5.316-10.423c1.242-0.332,2.818,0.473,3.701-1.085C666.175,450.111,666.205,449.771,666.235,449.43z"/>
<path fill-rule="evenodd" clip-rule="evenodd" fill="#FBF7F7" d="M697.928,390.208c-3.515,0.466-5.577,3.282-8.114,5.227
	c-2.669,2.046-3.887,1.575-4.578-1.548c-0.247-1.117-0.693-2.197-1.122-3.266c-2.837-7.076-2.822-7.026,4.424-10.194
	c2.644-1.155,5.753-1.372,7.815-3.745c0,0-0.148-0.017-0.146-0.017c2.496,0.261,4.755-0.193,6.517-2.152
	c0.294-0.077,0.592-0.125,0.894-0.148c4.61-0.44,8.963-1.744,13.07-3.875c0.289-0.106,0.586-0.17,0.894-0.192
	c1.036,0.056,2.071,0.111,3.379,0.182c-1.079,1.481-1.973,2.708-2.867,3.936l0.062-0.06c-1.228,0.09-2.031,0.652-2.174,1.951
	c0,0,0.102-0.062,0.101-0.062c-1.419,0.015-2.231,0.751-2.518,2.114c-0.424,0.211-0.847,0.422-1.271,0.634
	c-2.445,1.364-5.071,2.514-6.287,5.328l0.084-0.06c-2.783,0.276-4.576,1.939-5.924,4.227l0.059-0.045
	c-1.313-0.069-2.192,0.399-2.284,1.843L697.928,390.208z"/>
<path fill-rule="evenodd" clip-rule="evenodd" fill="#D77181" d="M202.456,664.883c-1.583,3.781-4.896,5.98-7.799,8.561
	c-1.191,1.059-1.167,1.084,1.341,1.855c-1.128,1.525-3.234,0.359-4.698,1.404C194.221,672.039,198.404,668.52,202.456,664.883z"/>
<path fill-rule="evenodd" clip-rule="evenodd" fill="#D77181" d="M214.091,650.285c-2.246,4.912-5.511,9.02-9.756,12.355
	C207.083,658.125,210.004,653.744,214.091,650.285z"/>
<path fill-rule="evenodd" clip-rule="evenodd" fill="#DA5564" d="M240.489,616.674c-2.47,4.775-5.831,8.781-10.274,11.848
	C232.676,623.736,235.708,619.447,240.489,616.674z"/>
<path fill-rule="evenodd" clip-rule="evenodd" fill="#DA5564" d="M718.092,374.415c0.895-1.227,1.788-2.454,2.867-3.936
	c-1.308-0.07-2.343-0.126-3.379-0.182c2.196-2.58,5.691-1.629,8.353-3.149C723.822,370.209,721.582,372.991,718.092,374.415z"/>
<path fill-rule="evenodd" clip-rule="evenodd" fill="#DA5564" d="M208.307,670.643c4.39-2.193,8.885-4.049,13.87-4.34
	C217.778,668.467,213.224,670.135,208.307,670.643z"/>
<path fill-rule="evenodd" clip-rule="evenodd" fill="#DA5564" d="M222.041,666.316c3.731-2.346,7.849-3.471,12.197-3.869
	C230.563,664.969,226.389,665.914,222.041,666.316z"/>
<path fill-rule="evenodd" clip-rule="evenodd" fill="#DA5564" d="M716.687,370.49c-4.107,2.131-8.46,3.435-13.07,3.875
	C707.582,371.758,711.988,370.631,716.687,370.49z"/>
<path fill-rule="evenodd" clip-rule="evenodd" fill="#DA5564" d="M230.26,628.477c-1.052,3.418-3.321,5.898-6.133,7.961
	C225.419,633.205,226.899,630.115,230.26,628.477z"/>
<path fill-rule="evenodd" clip-rule="evenodd" fill="#D77181" d="M218.258,644.463c-0.389,2.707-1.947,4.574-4.236,5.92
	C214.47,647.721,216.017,645.844,218.258,644.463z"/>
<path fill-rule="evenodd" clip-rule="evenodd" fill="#DA5564" d="M706.005,384.32c1.216-2.814,3.842-3.963,6.287-5.328
	C711.268,382.032,708.604,383.14,706.005,384.32z"/>
<path fill-rule="evenodd" clip-rule="evenodd" fill="#DA5564" d="M222.446,638.609c-0.55,2.598-2.132,4.447-4.271,5.893
	C218.634,641.838,219.836,639.715,222.446,638.609z"/>
<path fill-rule="evenodd" clip-rule="evenodd" fill="#DA5564" d="M700.165,388.488c1.348-2.288,3.141-3.951,5.924-4.227
	C704.757,386.57,702.978,388.252,700.165,388.488z"/>
<path fill-rule="evenodd" clip-rule="evenodd" fill="#DA5564" d="M702.723,374.514c-1.762,1.959-4.021,2.413-6.517,2.152
	C698.021,374.871,700.223,374.239,702.723,374.514z"/>
<path fill-rule="evenodd" clip-rule="evenodd" fill="#DA5564" d="M198.274,674.182c1.562-1.748,3.566-2.172,5.792-1.939
	C202.284,673.328,200.471,674.328,198.274,674.182z"/>
<path fill-rule="evenodd" clip-rule="evenodd" fill="#DA5564" d="M204.024,672.248c1.121-1.389,2.665-1.645,4.317-1.613
	C207.335,672.33,205.697,672.334,204.024,672.248z"/>
<path fill-rule="evenodd" clip-rule="evenodd" fill="#DA5564" d="M715.979,376.306c0.143-1.299,0.946-1.861,2.174-1.951
	C718.078,375.729,717.351,376.375,715.979,376.306z"/>
<path fill-rule="evenodd" clip-rule="evenodd" fill="#DA5564" d="M713.563,378.359c0.286-1.363,1.099-2.1,2.518-2.114
	C715.857,377.682,714.894,378.239,713.563,378.359z"/>
<path fill-rule="evenodd" clip-rule="evenodd" fill="#DA5564" d="M697.939,390.286c0.092-1.444,0.971-1.913,2.284-1.843
	C700.158,389.92,699.289,390.401,697.939,390.286z"/>
<path fill-rule="evenodd" clip-rule="evenodd" fill="#D77181" d="M204.378,662.592c-0.062,1.176-0.556,1.984-1.818,2.146
	C202.511,663.469,203.144,662.775,204.378,662.592z"/>
<path fill-rule="evenodd" clip-rule="evenodd" fill="#DA5564" d="M224.162,636.393c0.13,1.33-0.507,2.068-1.786,2.311
	C222.222,637.355,222.579,636.4,224.162,636.393z"/>
<path fill-rule="evenodd" clip-rule="evenodd" fill="#D77181" d="M418.061,562.475c-0.629-0.006-1.258-0.012-1.888-0.02
	c-2.556-2.994-5.005-6.09-7.701-8.953c-2.356-2.502-5.302-1.77-6.533,1.467c-1.162,3.053-0.947,6.152-0.146,9.26
	c1.567,6.078,2.35,6.451,7.792,3.762c1.162-0.572,2.413-0.965,3.623-1.441c-1.216,1.076,0.655,2.781-0.775,3.811
	c-1.71-1.924-3.156-0.098-4.359,0.578c-10.915,6.121-23.054,8.258-35.017,10.977c-0.378,0.086-0.854-0.266-1.818-0.596
	c7.746-5.469,16.077-9.568,21.579-17.334c-7.573,0.926-14.216,4.076-20.85,7.604c-16.856,8.963-30.459,22.129-44.997,34.102
	c-0.48,0.395-1.191,0.508-1.795,0.754c0,0-0.016-0.018-0.015-0.018c-0.189-1.457,1.029-2.008,1.867-2.709
	c15.912-13.301,31.085-27.615,50.052-36.752c1.374-0.662,3.005-1.037,1.378-3.074c-5.733-7.184-10.223-15.092-13.63-23.619
	c-0.702-1.76-1.566-2.227-3.342-1.047c-6.864,4.561-14.776,6.648-22.409,9.449c-9.635,3.533-19.482,6.91-26.023,15.666
	c-0.584,0.479-1.545,1.02-0.468,1.727c0.523,0.342,1.047-0.441,1.224-1.094c2.583-0.295,4.458-2.098,6.678-3.162
	c6.165-2.957,12.365-5.695,19.449-5.299c1.948,0.109,3.317,0.428,2.543,2.91c-3.009,9.656-8.019,17.949-16.203,24.119l-0.105-0.102
	c4.324-6.451,10.181-11.85,13.142-19.244c0.676-1.688,2.158-3.607,1.325-5.098c-1.132-2.023-3.667-0.947-5.499-0.701
	c-8.653,1.17-15.864,5.654-22.974,10.342c-2.342,1.543-4.179,3.846-6.998,4.674l-0.003,0.02
	c5.478-13.193,16.381-20.033,29.04-24.846c8.221-3.125,16.851-5.229,24.481-9.838c4.514-2.727,8.419-5.998,10.143-11.202
	c1.524-4.603,0.643-5.722-4.144-5.546c-1.827,0.066-3.654,0.141-5.48,0.211c4.183-2.074,8.618-0.184,12.892-0.821
	c-0.415,4.722-1.435,9.271-4.86,12.784c-1.81,1.855-1.205,3.627-0.443,5.49c3.283,8.033,7.466,15.539,12.761,22.453
	c1.754,2.291,3.4,2.582,5.968,1.637c3.365-1.238,6.89-2.039,10.845-3.172c-0.498,4.307-3.243,6.309-5.387,8.695
	c-0.734,0.818-2.373,1.553-1.634,2.744c1.735,2.801,4.573,3.684,7.289,1.832c1.857-1.266,7.187,0.043,4.607-5.334
	c-2.057-4.285-2.971-8.791-1.513-13.543c1.676-5.463,5.746-7.004,10.251-3.541C413.698,554.291,416.628,557.873,418.061,562.475z
	 M390.593,576.012c-5.279-5.287-7.063-0.049-9.927,1.213c0.099,0.398,0.198,0.795,0.298,1.191
	C383.9,577.684,386.837,576.949,390.593,576.012z"/>
<path fill-rule="evenodd" clip-rule="evenodd" fill="#D77181" d="M325.176,606.443c-10.053,9.371-20.707,17.5-35.292,18.164
	c-3.248,0.146-6.461,1.049-10.274,0.797c7.855-6.322,15.71-12.645,23.564-18.967l0.013,0.014
	c-2.767,5.605-8.627,7.949-12.763,12.111c-1.014,1.02-3.049,1.748-2.444,3.389c0.689,1.869,2.777,1.41,4.395,1.188
	c8.287-1.143,15.444-4.826,22.187-9.629c3.454-2.461,6.332-5.832,10.599-7.084L325.176,606.443z M286.963,622.705
	c-0.281-0.104-0.558-0.305-0.789-0.262c-0.197,0.037-0.339,0.357-0.506,0.553c0.266,0.104,0.546,0.311,0.792,0.275
	C286.647,623.244,286.792,622.912,286.963,622.705z"/>
<path fill-rule="evenodd" clip-rule="evenodd" fill="#D77181" d="M303.174,606.438c7.666-7.666,15.331-15.332,22.996-22.998
	c0,0,0.105,0.102,0.102,0.098c0.285,1.82-1.203,2.619-2.2,3.633c-5.451,5.541-10.905,11.082-16.468,16.51
	c-1.222,1.191-2.228,3.008-4.417,2.771L303.174,606.438z"/>
<polygon fill-rule="evenodd" clip-rule="evenodd" fill="#D77181" points="305.167,573.412 305.072,573.541 305.166,573.432 "/>
<path fill-rule="evenodd" clip-rule="evenodd" fill="#FBF7F7" d="M567.118,528.73c-0.115,6.025-2.938,10.045-7.868,13.75
	c-28.453,21.391-57.732,41.637-86.323,62.83c-0.746,0.553-1.326,1.566-2.89,0.93c1.572-6.148,3.665-12.211,4.327-18.672
	c2.062-20.125-1.994-39.09-10.067-57.381c-10.8-24.469-23.514-47.744-42.467-67.042c-9.407-9.578-19.72-17.854-34.083-22.001
	c7.902-4.325,14.835-8.35,21.971-11.977c13.188-6.703,26.688-12.749,40.187-18.809c11.193-5.025,22.868-8.694,34.217-13.25
	c2.02-0.811,3.734-0.708,5.707,0.27c1.293,0.641,2.591,3.121,4.073,1.466c1.662-1.855-2.047-2.126-1.906-4.182
	c10.073-4.012,20.65-6.914,31.195-9.829c22.323-6.172,44.974-10.881,67.973-13.699c8.222-1.007,16.511-2.404,24.831-0.579
	c13.463,4.936,24.679,12.796,32.813,24.82c4.681,6.919,4.847,6.95-2.536,11.277c-28.982,16.987-59.961,30.183-89.082,46.901
	c-2.127,1.22-6.958,2.094-5.717,4.033c1.652,2.581,4.945-0.912,7.119-2.199c29.909-17.703,62.013-31.21,92.202-48.363
	c1.801-1.022,3.851-2.099,4.917,0.74c5.299,14.111,9.766,28.372,6.731,43.773c-0.229,4.262-2.648,7.386-5.316,10.423
	c-16.451,18.728-35.954,33.938-55.899,48.652c-10.42,7.686-20.751,15.492-31.121,23.242c-1.5-2.107-0.449-4.497-0.748-6.736
	c-0.121-0.904,0.295-2.326-0.988-2.408c-1.729-0.111-1.264,1.506-1.376,2.543C566.942,527.736,567.071,528.238,567.118,528.73z
	 M468.211,425.389c3.22,1.893,4.558,5.41,6.94,8.022c1.534,1.681,2.098,5.582,5.778,2.694c3.746-2.938-0.81-3.878-1.379-5.781
	c-0.07-0.234,0.071-0.532,0.103-0.729c1.594-0.847,3.078,0.6,4.676,0.353c0-1.908,0-3.535,0-5.909
	c1.611,2.081,2.895,3.56,3.974,5.176c1.539,2.303,2.75,0.503,4.141-0.137c2.203-1.014,1.294-2.16,0.29-3.416
	c-3.015-3.77-6.108-7.484-8.965-11.371c-1.464-1.993-2.594-1.595-4.516-0.617c-4.206,2.14,0.086,5.487-1.603,8.189
	c-1.593-0.771-3.16-1.722-4.852-2.312c-3.928-1.368-6.206,1.648-4.522,5.891c-0.262,0.34-0.616,1.229-0.943,0.701
	c-2.474-3.998-5.019-2.008-7.656-0.279c-1.944,1.274-3.984,2.401-5.934,3.667c-0.998,0.647-2.935,1.215-1.349,2.82
	c1.199,1.213,1.51,4.661,4.132,3.019c3.042-1.905,4.055-0.154,5.378,1.854c1.096,1.665,2.382,3.215,3.369,4.938
	c1.292,2.258,2.609,1.703,4.457,0.647c2.262-1.292,1.53-2.421,0.392-3.912c-1.512-1.979-2.915-4.043-4.341-6.086
	c-0.529-0.758-1.623-1.983-0.396-2.42C468.001,429.463,467.167,426.97,468.211,425.389z M488.854,548.75
	c1.266-0.156,2.442-0.211,3.577-0.459c11.367-2.496,22.719-5.059,34.096-7.504c1.699-0.365,3.057-1.055,4.387-2.139
	c9.525-7.763,19.047-15.533,28.698-23.141c2.61-2.058,3.296-4.162,2.263-7.292c-9.586-29.021-22.674-56.343-39.254-82.023
	c-1.881-2.914-3.327-3.245-6.193-1.427c-7.566,4.799-15.268,9.391-22.992,13.935c-15.733,9.254-31.476,18.493-47.316,27.561
	c-2.775,1.588-3.191,2.806-1.175,5.27c1.883,2.3,3.462,4.857,5.093,7.355c13.926,21.33,26.039,43.623,35.671,67.232
	C486.291,547.547,486.41,549.693,488.854,548.75z M460,447.445c-0.48-0.747-0.905-1.457-1.378-2.135
	c-2.37-3.399-4.754-6.788-7.129-10.184c-1.131-1.618-1.86-3.268-4.578-1.646c-2.872,1.712-1.671,3.067-0.375,4.651
	c1.123,1.372,1.574,2.349-0.38,3.478c-1.542,0.891-2.667,1.203-3.684-0.535c-0.25-0.428-0.615-0.794-0.83-1.236
	c-1.257-2.594-2.758-1.298-4.42-0.431c-2.423,1.264-1.187,2.459-0.227,3.878c2.505,3.706,5.097,7.372,7.312,11.249
	c1.407,2.462,2.658,1.496,4.361,0.624c2.105-1.078,2.059-2.31,0.674-3.87c-2.455-2.765-0.797-4.197,1.821-4.819
	c1.868-0.443,2.199,1.67,2.97,2.794c0.951,1.385,1.947,1.751,3.254,0.723C458.333,449.245,459.995,449.165,460,447.445z
	 M507.185,418.565c-1.881-0.527-1.828-5.708-5.066-3.065c-4.477,3.654-6.498,1.239-8.835-2.094
	c-0.855-1.219-2.085-2.195-2.834-3.465c-1.658-2.811-3.297-1.173-4.887-0.098c-2.333,1.579,0.056,2.487,0.705,3.432
	c1.409,2.049,3.077,3.92,4.628,5.873c6.46,8.132,7.078,8.191,15.103,1.651C506.645,420.271,507.44,419.965,507.185,418.565z
	 M609.195,437.594c-0.528-1.193-0.596-3.201-2.694-2.514c-1.724,0.564-4.221,0.595-4.365,3.238
	c-0.107,1.975,1.205,3.124,3.078,3.032C607.38,441.245,608.847,439.999,609.195,437.594z M562.059,462.002
	c-0.388-1.69-1.631-2.382-3.214-2.141c-1.465,0.223-2.956,0.861-2.714,2.785c0.207,1.644,1.55,1.908,2.923,1.882
	C560.679,464.498,561.892,463.902,562.059,462.002z M651.196,414.498c0.027-1.424-1.067-1.858-2.227-2.012
	c-1.604-0.213-3.106,0.274-3.475,1.992c-0.317,1.484,1.062,1.897,2.192,2.089C649.31,416.842,650.616,416.333,651.196,414.498z"/>
<path fill-rule="evenodd" clip-rule="evenodd" fill="#FBF7F7" d="M418.061,562.475c-1.433-4.602-4.363-8.184-8.079-11.039
	c-4.505-3.463-8.575-1.922-10.251,3.541c-1.458,4.752-0.544,9.258,1.513,13.543c2.58,5.377-2.75,4.068-4.607,5.334
	c-2.716,1.852-5.554,0.969-7.289-1.832c-0.739-1.191,0.9-1.926,1.634-2.744c2.144-2.387,4.889-4.389,5.387-8.695
	c-3.955,1.133-7.48,1.934-10.845,3.172c-2.568,0.945-4.214,0.654-5.968-1.637c-5.295-6.914-9.478-14.42-12.761-22.453
	c-0.761-1.863-1.366-3.635,0.443-5.49c3.425-3.513,4.445-8.063,4.86-12.784c0.702-0.313,1.403-0.625,2.104-0.938
	c0.564,0.593,1.112,1.203,1.696,1.776c3.232,3.17,7.063,5.572,11.513,3.623c4.174-1.828,2.92-6.143,2.808-9.704
	c-0.026-0.823-0.171-1.643-0.261-2.464c0.115-1.277,0.275-2.553,0.331-3.832c0.047-1.074,2.056-1.76,0.89-2.861
	c-1.261-1.19-2.698-0.047-4.012,0.452c-1.842-3.229-3.908-5.938-8.329-5.302c-3.768,0.544-5.031,3.064-5.681,6.279h0.001
	c-1.381,2.531-0.594,5.168-0.376,7.776c-0.661-0.067-1.385,0.016-1.974-0.229c-2.997-1.243-7.278,2.464-8.989-1.173
	c-1.166-2.479,0.223-6.16,0.47-9.302c0.748-1.841,1.459-3.698,2.25-5.522c3.822-8.813,12.677-13.279,20.708-9.047
	c9.133,4.813,18.539,9.545,25.032,18.316c5.061,6.836,9.77,13.862,13.432,21.5c6.22,12.967,11.292,26.307,10.432,41.098
	c-0.282,4.84-1.627,9.627-6.063,11.893c-3.524,1.799-7.029,6.162-12.03,1.813c0.273,1.646,0.792,2.23,1.665,2.449
	c7.909,1.982,16.622-4.516,17.898-12.643c1.621-10.314,0.036-20.168-3.52-29.703c-8.156-21.872-18.036-42.314-39.934-54.48
	c-14.518-8.065-26.787-3.778-30.937,12.312l-0.009,0.019c-0.723,0.841-1.021,1.796-0.784,2.896
	c-0.244,2.482-0.628,4.961-0.687,7.447c-0.047,2.02-0.998,2.857-2.787,3.525c-7.575,2.83-8.187,2.398-8.862-5.773
	c-1.429-17.311,0.509-33.812,10.233-48.846c5.832-9.016,14.846-13.544,23.874-18.135c2.125-1.081,4.559-0.138,6.807,0.58
	c9.915,3.166,18.149,9.106,25.366,16.293c27.381,27.272,45.22,60.078,54.911,97.309c3.096,11.893,2.63,24.201,0.265,36.199
	c-3.865,19.602-16.569,26.764-35.734,20.809c-12.257-3.807-22.934-10.396-32.915-18.301c-1.903-1.506-2.307-2.77-0.213-4.17
	c4.045-2.705,6.385-8.508,13.328-7c-3.12-1.42-4.021-2.832-1.509-5.266c1.885-1.826,3.282-4.156,4.901-6.258
	C420.458,570.846,421.035,566.756,418.061,562.475z M401.852,525.793c0.233,6.362,1.428,12.275,5.706,17.156
	c2.266,2.586,4.919,3.846,8.369,2.375c3.312-1.414,4.78-3.85,4.46-7.455c-0.177-1.992-0.483-3.898-1.301-5.767
	c-2.149-4.913-5.18-9.214-8.835-13.083c-2.777-2.939-6.75-1.976-7.864,1.955C401.943,522.541,402.008,524.251,401.852,525.793z
	 M373.586,541.418c-0.046,7.775,3.278,13.479,8.896,15.506c5.424,1.957,8.795-0.566,8.571-6.369
	c-0.281-7.291-4.732-12.158-9.757-16.613c-2.209-1.959-4.325-1.076-5.967,1.074C373.834,536.973,373.838,539.357,373.586,541.418z"
	/>
<path fill-rule="evenodd" clip-rule="evenodd" fill="#FBF7F7" d="M306.185,408.62c-3.634-3.333-8.187-5.575-11.988-9.901
	c5.726,0.57,10.734,1.272,15.766,1.535c22.262,1.159,44.137-2.798,66.136-5.15c14.925-1.596,29.88-2.393,44.845-0.41
	c5.971,0.791,14.238,10.244,14.306,16.283c0.004,0.32,0.031,0.672-0.081,0.958c-0.717,1.822-10.806,5.295-13.103,4.53
	c-2.175-6.247-6.286-9.299-11.6-8.041c4.284,2.251,8.105,4.52,9.662,9.03c0.174,2.206-1.547,2.574-3.046,3.323
	c-12.441,6.222-24.913,12.383-37.042,19.218c-3.516,1.981-7.109,2.422-11.283,0.645c-18.233-7.763-36.435-15.545-53.257-26.154
	c-1.103-0.696-3.484-0.755-2.371-3.208c1.167,0.229,2.196-0.136,3.167-0.743c0.967-0.094,1.934-0.188,2.9-0.282
	c3.028-0.275,6.187,1.007,9.091-0.757c0.609-0.009,1.219-0.018,1.828-0.027c6.747,1.079,13.56,0.604,20.338,0.748
	c5.935,0.126,11.933,0.856,17.811-0.739c0.624-0.055,1.247-0.11,1.871-0.166c1.959,0.01,4.145,0.551,5.267-2.267
	c-2.023,0.123-3.765-0.021-5.285,1.054c-8.623,0.102-17.246,0.205-25.869,0.307c-0.73-0.518-1.465-0.523-2.205-0.021
	c-0.564-0.011-1.129-0.023-1.694-0.034c-6.748-1.243-13.492-1.152-20.234,0.037c-1.325,0.094-2.649,0.188-3.973,0.282
	c-1.42-0.238-2.801-0.269-3.979,0.763l0.007-0.003C310.101,409.715,308.109,409.417,306.185,408.62z M380.749,407.139
	c8.608,0.656,17.161-0.622,25.757-0.384C397.854,404.628,389.274,404.953,380.749,407.139z M333.714,418.41
	c1.99,0.011,3.321-1.05,3.313-2.933c-0.008-1.846-0.79-3.808-2.998-3.962c-2.154-0.151-2.611,1.772-2.845,3.422
	C330.921,416.79,331.513,418.244,333.714,418.41z M408.201,411.576c-1.182,0.006-2.18,0.438-1.915,1.653
	c0.357,1.639,1.31,3.097,3.199,3.212c1.529,0.093,1.826-1.179,1.788-2.378C411.209,412.072,409.48,412.04,408.201,411.576z"/>
<path fill-rule="evenodd" clip-rule="evenodd" fill="#FBF7F7" d="M466.273,665.367c0.287-14.787,0.681-29.57,0.785-44.357
	c0.026-3.709,1.328-6.18,4.235-8.344c13.57-10.104,27.148-20.199,40.487-30.602c3.885-3.031,6.309-2.711,8.568,1.408
	c0.203,0.383,0.406,0.766,0.61,1.146l0.017,0.068c1.096,4.711,0.432,9.33-1.344,13.682c-2.842,6.957-7.087,13.123-11.598,19.105
	c-12.403,16.445-27.45,30.668-39.684,47.252C467.758,665.531,467.16,665.781,466.273,665.367z M474.551,644.268
	c1.789-0.359,3.283-1.348,3.5-3.414c0.133-1.264-0.778-2.348-2.056-2.383c-2.186-0.061-3.21,1.488-3.528,3.428
	C472.248,643.232,472.95,644.105,474.551,644.268z M511.106,601.564c1.293-0.354,2.846-0.689,2.95-2.547
	c0.077-1.354-0.421-2.961-1.956-2.934c-1.956,0.035-3.215,1.66-3.547,3.449C508.293,600.934,509.823,601.176,511.106,601.564z"/>
<path fill-rule="evenodd" clip-rule="evenodd" fill="#FBF7F7" d="M644.154,370.238c8.419,1.282,16.596,3.311,24.12,7.5
	c9.853,5.485,15.427,13.935,15.279,25.085c-0.231,17.468-6.653,32.94-17.368,46.664c-0.362-6.789-0.558-13.59-1.93-20.288
	c-4.188-20.448-12.325-38.588-29.647-51.492c-4.212-3.137-9.055-5.188-14.14-8.176C628.938,368.6,636.525,370.08,644.154,370.238z"
	/>
<path fill-rule="evenodd" clip-rule="evenodd" fill="#FBF7F7" d="M466.63,672.555c0.548-1.002,1.097-2.002,1.646-3.004
	c8.699-13.652,19.997-25.193,30.397-37.469c8.374-9.881,16.988-19.662,22.31-31.652c2.394-5.391,4.94-11.072,1.445-17.1
	c-0.172-1.186-0.616-2.232-1.519-3.061c-2.249-2.066-1.99-3.521,0.613-5.348c2.536-1.779,3.906-1.707,5.396,1.053
	c1.178,2.18,2.816,4.105,4.223,6.164c6.594,9.65,6.908,13.006,0.279,22.529c-8.818,12.67-18.243,24.914-27.164,37.514
	c-10.748,15.18-21.24,30.541-31.846,45.822c-0.824,1.188-1.372,2.662-3.052,3.057c-1.45-1.275-0.893-3.123-1.381-4.652
	c0.107-2.043,0.313-4.102-0.794-5.986l0.005,0.02C467.339,677.789,467.277,675.15,466.63,672.555z"/>
<path fill-rule="evenodd" clip-rule="evenodd" fill="#D77181" d="M644.154,370.238c-7.629-0.158-15.216-1.639-23.686-0.708
	c5.085,2.987,9.928,5.039,14.14,8.176c17.322,12.903,25.46,31.044,29.647,51.492c1.372,6.698,1.567,13.499,1.93,20.288
	c0.001,0,0.05-0.057,0.05-0.057c-1.175,0.239-0.656,0.628-0.091,1.022c-0.883,1.558-2.459,0.753-3.701,1.085
	c3.034-15.401-1.433-29.662-6.731-43.773c-1.066-2.839-3.116-1.763-4.917-0.74c-30.189,17.153-62.293,30.66-92.202,48.363
	c-2.174,1.287-5.467,4.779-7.119,2.199c-1.241-1.939,3.59-2.813,5.717-4.033c29.121-16.719,60.1-29.914,89.082-46.901
	c7.383-4.327,7.217-4.358,2.536-11.277c-8.135-12.024-19.351-19.885-32.813-24.82c6.895-4.032,14.331-1.885,21.537-1.647
	C639.655,368.977,642.183,368.7,644.154,370.238z"/>
<path fill-rule="evenodd" clip-rule="evenodd" fill="#D77181" d="M361.221,503.479c4.149-16.09,16.418-20.377,30.937-12.312
	c21.898,12.166,31.778,32.608,39.934,54.48c3.556,9.535,5.141,19.389,3.52,29.703c-1.277,8.127-9.99,14.625-17.898,12.643
	c-0.873-0.219-1.392-0.803-1.665-2.449c5.001,4.35,8.506-0.014,12.03-1.813c4.436-2.266,5.782-7.053,6.063-11.893
	c0.86-14.791-4.212-28.131-10.432-41.098c-3.663-7.638-8.371-14.664-13.432-21.5c-6.493-8.771-15.899-13.503-25.032-18.316
	c-8.031-4.232-16.886,0.234-20.708,9.047c-0.791,1.824-1.502,3.681-2.25,5.522C361.932,504.82,361.576,504.149,361.221,503.479z"/>
<path fill-rule="evenodd" clip-rule="evenodd" fill="#D77181" d="M522.428,583.33c3.495,6.027,0.948,11.709-1.445,17.1
	c-5.321,11.99-13.936,21.771-22.31,31.652c-10.401,12.275-21.699,23.816-30.397,37.469c-0.92-1.273-2.684-2.145-2.002-4.186
	c0.887,0.416,1.485,0.166,2.077-0.639c12.234-16.584,27.281-30.807,39.684-47.252c4.511-5.982,8.756-12.148,11.598-19.105
	c1.775-4.352,2.439-8.971,1.344-13.682C521.46,584.236,521.944,583.783,522.428,583.33z"/>
<path fill-rule="evenodd" clip-rule="evenodd" fill="#FBF7F7" d="M375.41,518.145c-0.005-0.257-0.08-0.492-0.224-0.705
	c-0.325-1.354-0.65-2.708-0.975-4.063c0.018-0.934,0.035-1.868,0.052-2.803c1.503-2.146,1.054-6.102,4.936-6.028
	c3.703,0.069,5.091,3.262,6.72,5.94c0.256,0.42,0.396,0.912,0.587,1.371c1.665,3.995,3.692,8.287,0.129,11.975
	C384.325,526.224,378.98,523.276,375.41,518.145z"/>
<path fill-rule="evenodd" clip-rule="evenodd" fill="#FBF7F7" d="M413.208,566.549c-1.21,0.477-2.461,0.869-3.623,1.441
	c-5.442,2.689-6.224,2.316-7.792-3.762c-0.801-3.107-1.017-6.207,0.146-9.26c1.231-3.236,4.177-3.969,6.533-1.467
	c2.696,2.863,5.145,5.959,7.701,8.953C415.954,564.377,414.479,565.389,413.208,566.549z"/>
<path fill-rule="evenodd" clip-rule="evenodd" fill="#D77181" d="M375.41,518.145c3.571,5.132,8.915,8.079,11.226,5.688
	c3.563-3.688,1.536-7.979-0.129-11.975c-0.191-0.459-0.331-0.951-0.587-1.371c-1.629-2.679-3.017-5.871-6.72-5.94
	c-3.881-0.073-3.433,3.882-4.936,6.028c-0.37-0.719-0.739-1.437-1.109-2.154c0.65-3.215,1.914-5.735,5.681-6.279
	c4.421-0.637,6.487,2.073,8.329,5.302c0.931,2.081,1.861,4.161,2.792,6.241c0.09,0.821,0.235,1.641,0.261,2.464
	c0.113,3.562,1.366,7.876-2.808,9.704c-4.451,1.949-8.281-0.453-11.513-3.623c-0.584-0.573-1.132-1.184-1.696-1.776
	C374.604,519.684,375.007,518.914,375.41,518.145z"/>
<path fill-rule="evenodd" clip-rule="evenodd" fill="#D77181" d="M420.128,417.455c-1.557-4.51-5.377-6.779-9.662-9.03
	c5.314-1.259,9.425,1.794,11.6,8.041C421.246,416.454,420.568,416.721,420.128,417.455z"/>
<path fill-rule="evenodd" clip-rule="evenodd" fill="#D77181" d="M368.266,409.478c-5.878,1.596-11.876,0.865-17.811,0.739
	c-6.779-0.144-13.591,0.331-20.338-0.748C342.833,409.472,355.549,409.475,368.266,409.478z"/>
<path fill-rule="evenodd" clip-rule="evenodd" fill="#D77181" d="M320.116,408.388c6.742-1.189,13.486-1.28,20.234-0.037
	C333.605,408.363,326.86,408.375,320.116,408.388z"/>
<path fill-rule="evenodd" clip-rule="evenodd" fill="#D77181" d="M567.118,528.73c-0.047-0.492-0.176-0.994-0.124-1.477
	c0.112-1.037-0.354-2.654,1.376-2.543c1.283,0.082,0.867,1.504,0.988,2.408c0.299,2.239-0.752,4.629,0.748,6.736
	C566.569,533.629,567.03,531.07,567.118,528.73z"/>
<path fill-rule="evenodd" clip-rule="evenodd" fill="#D77181" d="M370.118,408.1c1.521-1.075,3.262-0.931,5.285-1.054
	c-1.122,2.818-3.308,2.277-5.267,2.267C370.13,408.908,370.124,408.504,370.118,408.1z"/>
<path fill-rule="evenodd" clip-rule="evenodd" fill="#D77181" d="M328.288,409.497c-2.904,1.764-6.063,0.482-9.091,0.757
	C322.122,408.73,325.233,409.456,328.288,409.497z"/>
<path fill-rule="evenodd" clip-rule="evenodd" fill="#D77181" d="M372.78,516.196c-0.218-2.608-1.004-5.245,0.376-7.776
	C373.039,511.013,373.854,513.65,372.78,516.196z"/>
<path fill-rule="evenodd" clip-rule="evenodd" fill="#D77181" d="M466.63,672.555c0.647,2.596,0.709,5.234,0.558,7.887
	C465.497,677.92,466.03,675.24,466.63,672.555z"/>
<path fill-rule="evenodd" clip-rule="evenodd" fill="#D77181" d="M306.185,408.62c1.924,0.797,3.916,1.095,5.987,0.809
	C309.914,411.103,307.901,410.957,306.185,408.62z"/>
<path fill-rule="evenodd" clip-rule="evenodd" fill="#D77181" d="M467.183,680.422c1.107,1.885,0.902,3.943,0.794,5.986
	C466.597,684.561,467.154,682.457,467.183,680.422z"/>
<path fill-rule="evenodd" clip-rule="evenodd" fill="#D77181" d="M312.165,409.432c1.177-1.032,2.559-1,3.979-0.763
	C314.964,409.693,313.551,409.493,312.165,409.432z"/>
<path fill-rule="evenodd" clip-rule="evenodd" fill="#D77181" d="M374.211,513.377c0.325,1.354,0.649,2.709,0.975,4.063
	C373.809,516.338,374.032,514.853,374.211,513.377z"/>
<path fill-rule="evenodd" clip-rule="evenodd" fill="#D77181" d="M316.297,410.536c-0.971,0.607-2,0.972-3.167,0.743
	C314.016,410.306,315.142,410.357,316.297,410.536z"/>
<path fill-rule="evenodd" clip-rule="evenodd" fill="#D77181" d="M360.427,506.393c-0.237-1.1,0.061-2.055,0.784-2.896
	C361.302,504.558,361.29,505.591,360.427,506.393z"/>
<path fill-rule="evenodd" clip-rule="evenodd" fill="#D77181" d="M342.044,408.385c0.74-0.501,1.475-0.496,2.205,0.021
	C343.514,408.399,342.779,408.392,342.044,408.385z"/>
<path fill-rule="evenodd" clip-rule="evenodd" fill="#FBF7F7" d="M666.145,450.452c-0.565-0.394-1.084-0.783,0.091-1.022
	C666.205,449.771,666.175,450.111,666.145,450.452z"/>
<path fill-rule="evenodd" clip-rule="evenodd" fill="#D77181" d="M520.959,584.619c-0.204-0.381-0.407-0.764-0.61-1.146
	C520.552,583.855,520.755,584.238,520.959,584.619z"/>
<path fill-rule="evenodd" clip-rule="evenodd" fill="#FBF7F7" d="M303.187,606.451c2.189,0.236,3.195-1.58,4.417-2.771
	c5.563-5.428,11.018-10.969,16.468-16.51c0.997-1.014,2.484-1.813,2.2-3.633c8.188-6.166,13.198-14.459,16.207-24.115
	c0.774-2.482-0.595-2.801-2.543-2.91c-7.084-0.396-13.284,2.342-19.449,5.299c-2.22,1.064-4.095,2.867-6.678,3.162
	c-0.238-0.229-0.489-0.439-0.755-0.633c6.542-8.756,16.388-12.133,26.023-15.666c7.633-2.801,15.545-4.889,22.409-9.449
	c1.775-1.18,2.64-0.713,3.342,1.047c3.407,8.527,7.897,16.436,13.63,23.619c1.627,2.037-0.004,2.412-1.378,3.074
	c-18.967,9.137-34.141,23.451-50.052,36.752c-0.838,0.701-2.057,1.252-1.867,2.709c-4.268,1.252-7.146,4.623-10.599,7.084
	c-6.743,4.803-13.9,8.486-22.187,9.629c-1.618,0.223-3.706,0.682-4.395-1.188c-0.605-1.641,1.43-2.369,2.444-3.389
	C294.56,614.4,300.419,612.057,303.187,606.451z"/>
<path fill-rule="evenodd" clip-rule="evenodd" fill="#E5E2E2" d="M390.593,576.012c-3.756,0.938-6.693,1.672-9.629,2.404
	c-0.1-0.396-0.199-0.793-0.298-1.191C383.53,575.963,385.314,570.725,390.593,576.012z"/>
<path fill-rule="evenodd" clip-rule="evenodd" fill="#FBF7F7" d="M313.809,564.973c-0.177,0.652-0.7,1.436-1.224,1.094
	c-1.077-0.707-0.116-1.248,0.468-1.727C313.319,564.533,313.571,564.744,313.809,564.973z"/>
<path fill-rule="evenodd" clip-rule="evenodd" fill="#FBF7F7" d="M286.963,622.705c-0.171,0.207-0.315,0.539-0.503,0.566
	c-0.246,0.035-0.526-0.172-0.792-0.275c0.167-0.195,0.31-0.516,0.506-0.553C286.405,622.4,286.682,622.602,286.963,622.705z"/>
<path fill-rule="evenodd" clip-rule="evenodd" fill="#E1542C" d="M488.854,548.75c-2.444,0.943-2.563-1.203-3.146-2.633
	c-9.633-23.609-21.745-45.903-35.671-67.232c-1.631-2.498-3.209-5.055-5.093-7.355c-2.017-2.463-1.6-3.681,1.175-5.27
	c15.84-9.068,31.583-18.306,47.316-27.561c7.725-4.543,15.426-9.135,22.992-13.935c2.866-1.818,4.313-1.486,6.193,1.427
	c16.58,25.68,29.668,53.002,39.254,82.023c1.033,3.13,0.348,5.234-2.263,7.292c-9.651,7.607-19.173,15.378-28.698,23.141
	c-1.33,1.084-2.688,1.773-4.387,2.139c-11.377,2.445-22.729,5.008-34.096,7.504C491.296,548.539,490.119,548.594,488.854,548.75z
	 M520.065,510.309c-3.766,1.131-7.568,2.15-11.283,3.428c-2.718,0.934-4.858,0.967-5.809-2.276
	c-1.425-4.866-4.344-4.253-7.869-2.339c-6.015,3.266-6.048,3.197-3.135,9.262c0.356,0.742,0.602,1.539,0.984,2.266
	c3.788,7.209,3.844,7.444,11.924,5.744c6.397-1.346,13.105-1.676,18.992-5.008c5.589-4.662,11.162-9.343,16.773-13.978
	c1.668-1.378,2.578-2.77,1.848-5.14c-3.125-10.157-7.272-19.902-11.608-29.576c-0.569-1.269-1.177-2.155-2.98-1.086
	c-7.236,4.288-14.591,8.375-21.901,12.538c-3.514,1.809-7.149,3.419-10.504,5.486c-2.932,1.806-4.846,1.56-6.224-1.686
	c-0.386-0.91-0.826-1.86-1.473-2.584c-2.358-2.642-2.252-4.27,1.315-5.892c4.021-1.828,7.696-4.415,11.521-6.671
	c5.453-2.053,10.19-5.441,15.252-8.221c9.037-4.963,8.914-4.987,4.303-13.832c-1.049-2.014-1.768-2.321-3.704-1.163
	c-7.392,4.419-14.875,8.685-22.324,13.007c-8.066,4.531-16.1,9.122-24.228,13.54c-1.575,0.856-1.929,1.451-0.932,2.96
	c5.667,8.583,11.048,17.342,15.999,26.364c0.743,1.354,1.547,2.355,3.506,1.238c7.18-4.091,14.912-7.174,21.74-11.916
	c1.781-0.757,3.551-1.549,5.35-2.263c2.836-1.124,5.554-4.749,8.176-3.47c2.736,1.334,2.349,5.848,3.891,8.768
	c1.354,2.565,1.184,4.912-1.572,6.875C523.874,506.264,522.06,508.412,520.065,510.309z"/>
<path fill-rule="evenodd" clip-rule="evenodd" fill="#242020" d="M468.278,425.443c-1.686-4.243,0.591-7.259,4.52-5.891
	c1.692,0.589,3.259,1.54,4.852,2.312c1.689-2.702-2.603-6.05,1.603-8.189c1.922-0.978,3.052-1.376,4.516,0.617
	c2.856,3.887,5.95,7.601,8.965,11.371c1.004,1.256,1.914,2.402-0.29,3.416c-1.391,0.641-2.603,2.44-4.141,0.137
	c-1.08-1.616-2.363-3.095-3.974-5.176c0,2.374,0,4.001,0,5.909c-1.598,0.247-3.082-1.2-4.676-0.353
	c-0.032,0.197-0.173,0.494-0.103,0.729c0.569,1.902,5.125,2.842,1.379,5.781c-3.68,2.887-4.244-1.013-5.778-2.694
	c-2.383-2.612-3.721-6.13-6.94-8.022L468.278,425.443z"/>
<path fill-rule="evenodd" clip-rule="evenodd" fill="#242020" d="M460,447.445c-0.005,1.72-1.666,1.8-2.608,2.541
	c-1.308,1.028-2.304,0.662-3.254-0.723c-0.771-1.124-1.103-3.237-2.97-2.794c-2.619,0.622-4.276,2.054-1.821,4.819
	c1.385,1.56,1.432,2.792-0.674,3.87c-1.703,0.872-2.954,1.838-4.361-0.624c-2.215-3.877-4.807-7.543-7.312-11.249
	c-0.959-1.419-2.196-2.614,0.227-3.878c1.662-0.867,3.163-2.163,4.42,0.431c0.214,0.442,0.58,0.809,0.83,1.236
	c1.017,1.738,2.143,1.426,3.684,0.535c1.954-1.129,1.503-2.106,0.38-3.478c-1.296-1.584-2.497-2.938,0.375-4.651
	c2.718-1.621,3.447,0.028,4.578,1.646c2.375,3.396,4.759,6.785,7.129,10.184C459.094,445.988,459.52,446.698,460,447.445z"/>
<path fill-rule="evenodd" clip-rule="evenodd" fill="#242020" d="M468.211,425.389c-1.044,1.581-0.209,4.074-2.825,5.004
	c-1.227,0.437-0.134,1.662,0.396,2.42c1.427,2.043,2.829,4.107,4.341,6.086c1.139,1.49,1.871,2.62-0.392,3.912
	c-1.848,1.056-3.165,1.611-4.457-0.647c-0.987-1.724-2.272-3.274-3.369-4.938c-1.323-2.009-2.336-3.759-5.378-1.854
	c-2.622,1.642-2.934-1.806-4.132-3.019c-1.586-1.604,0.351-2.172,1.349-2.82c1.95-1.266,3.99-2.393,5.934-3.667
	c2.637-1.729,5.182-3.719,7.656,0.279c0.327,0.528,0.681-0.361,0.944-0.701C468.278,425.443,468.211,425.389,468.211,425.389z"/>
<path fill-rule="evenodd" clip-rule="evenodd" fill="#242020" d="M507.185,418.565c0.256,1.399-0.54,1.706-1.188,2.233
	c-8.025,6.541-8.643,6.481-15.103-1.651c-1.551-1.953-3.219-3.824-4.628-5.873c-0.649-0.945-3.039-1.853-0.705-3.432
	c1.59-1.076,3.229-2.713,4.887,0.098c0.749,1.27,1.979,2.246,2.834,3.465c2.337,3.333,4.359,5.748,8.835,2.094
	C505.356,412.857,505.304,418.038,507.185,418.565z"/>
<path fill-rule="evenodd" clip-rule="evenodd" fill="#D77181" d="M609.195,437.594c-0.349,2.404-1.815,3.651-3.981,3.756
	c-1.873,0.091-3.186-1.058-3.078-3.032c0.145-2.643,2.642-2.674,4.365-3.238C608.6,434.394,608.667,436.401,609.195,437.594z"/>
<path fill-rule="evenodd" clip-rule="evenodd" fill="#D77181" d="M562.059,462.002c-0.167,1.899-1.38,2.495-3.005,2.526
	c-1.373,0.026-2.716-0.238-2.923-1.882c-0.242-1.924,1.249-2.562,2.714-2.785C560.428,459.62,561.671,460.312,562.059,462.002z"/>
<path fill-rule="evenodd" clip-rule="evenodd" fill="#D77181" d="M651.196,414.498c-0.58,1.835-1.887,2.345-3.509,2.069
	c-1.131-0.192-2.51-0.605-2.192-2.089c0.368-1.717,1.871-2.205,3.475-1.992C650.129,412.639,651.224,413.074,651.196,414.498z"/>
<path fill-rule="evenodd" clip-rule="evenodd" fill="#DA5564" d="M401.852,525.793c0.156-1.542,0.091-3.252,0.536-4.818
	c1.114-3.931,5.087-4.895,7.864-1.955c3.656,3.869,6.686,8.17,8.835,13.083c0.818,1.868,1.124,3.774,1.301,5.767
	c0.32,3.605-1.149,6.041-4.46,7.455c-3.45,1.471-6.104,0.211-8.369-2.375C403.279,538.068,402.085,532.155,401.852,525.793z
	 M404.16,526.534c0.269,4.687,1.403,9.349,4.022,13.491c1.574,2.49,3.781,4.422,7.068,3.061c3.642-1.506,3.488-4.668,2.544-7.607
	c-1.425-4.438-3.588-8.538-7.114-11.777c-1.411-1.296-2.391-3.848-4.637-3.047C403.543,521.545,404.412,524.279,404.16,526.534z"/>
<path fill-rule="evenodd" clip-rule="evenodd" fill="#D77181" d="M373.586,541.418c0.252-2.061,0.249-4.445,1.743-6.402
	c1.643-2.15,3.758-3.033,5.967-1.074c5.025,4.455,9.477,9.322,9.757,16.613c0.224,5.803-3.147,8.326-8.571,6.369
	C376.864,554.896,373.54,549.193,373.586,541.418z M388.649,550.973c0.108-4.838-4.584-12.254-9.277-14.66
	c-1.208-0.621-1.82,0.193-2.375,1.027c-3.207,4.822,0.542,15.334,6.171,17.332C386.8,555.963,388.563,554.771,388.649,550.973z"/>
<path fill-rule="evenodd" clip-rule="evenodd" fill="#E5E2E2" d="M389.957,513.684c-0.931-2.08-1.861-4.16-2.792-6.241
	c1.314-0.499,2.751-1.643,4.012-0.452c1.167,1.102-0.842,1.787-0.89,2.861C390.231,511.131,390.071,512.406,389.957,513.684z"/>
<path fill-rule="evenodd" clip-rule="evenodd" fill="#D77181" d="M380.749,407.139c8.525-2.186,17.105-2.511,25.757-0.384
	C397.91,406.517,389.357,407.795,380.749,407.139z"/>
<path fill-rule="evenodd" clip-rule="evenodd" fill="#D77181" d="M333.714,418.41c-2.201-0.167-2.793-1.62-2.53-3.472
	c0.234-1.65,0.691-3.574,2.845-3.422c2.208,0.154,2.99,2.116,2.998,3.962C337.035,417.36,335.704,418.421,333.714,418.41z"/>
<path fill-rule="evenodd" clip-rule="evenodd" fill="#D77181" d="M408.201,411.576c1.28,0.464,3.009,0.496,3.072,2.488
	c0.038,1.199-0.259,2.471-1.788,2.378c-1.889-0.115-2.841-1.573-3.199-3.212C406.021,412.014,407.019,411.582,408.201,411.576z"/>
<path fill-rule="evenodd" clip-rule="evenodd" fill="#D77181" d="M474.551,644.268c-1.601-0.162-2.303-1.035-2.084-2.369
	c0.318-1.939,1.342-3.488,3.528-3.428c1.278,0.035,2.189,1.119,2.056,2.383C477.833,642.92,476.34,643.908,474.551,644.268z"/>
<path fill-rule="evenodd" clip-rule="evenodd" fill="#D77181" d="M511.106,601.564c-1.283-0.389-2.813-0.631-2.553-2.031
	c0.332-1.789,1.591-3.414,3.547-3.449c1.535-0.027,2.033,1.58,1.956,2.934C513.952,600.875,512.399,601.211,511.106,601.564z"/>
<path fill-rule="evenodd" clip-rule="evenodd" fill="#E5E2E2" d="M500.638,472.796c-3.825,2.257-7.501,4.843-11.521,6.671
	c-3.567,1.622-3.674,3.25-1.315,5.892c0.647,0.725,1.087,1.675,1.473,2.584c1.378,3.246,3.292,3.492,6.224,1.686
	c3.354-2.067,6.99-3.677,10.504-5.486c0.432,3.937,2.957,7.037,4.248,10.63c-6.828,4.742-14.561,7.825-21.74,11.916
	c-1.959,1.117-2.763,0.115-3.506-1.238c-4.95-9.021-10.331-17.781-15.999-26.364c-0.997-1.509-0.643-2.104,0.932-2.96
	c8.128-4.417,16.162-9.009,24.228-13.54C495.124,466.75,497.698,469.889,500.638,472.796z"/>
<path fill-rule="evenodd" clip-rule="evenodd" fill="#FBF7F7" d="M510.249,494.773c-1.291-3.594-3.816-6.694-4.248-10.63
	c7.311-4.162,14.665-8.25,21.901-12.537c1.804-1.069,2.411-0.183,2.98,1.086c4.336,9.674,8.483,19.418,11.608,29.576
	c0.73,2.37-0.18,3.762-1.848,5.14c-5.611,4.635-11.185,9.315-16.773,13.978c-3.809-2.496-5.441-7.25-3.805-11.076
	c1.994-1.896,3.809-4.045,6.027-5.625c2.756-1.963,2.926-4.31,1.572-6.875c-1.542-2.92-1.154-7.434-3.891-8.768
	c-2.622-1.279-5.34,2.346-8.176,3.47C513.8,493.224,512.03,494.016,510.249,494.773z"/>
<path fill-rule="evenodd" clip-rule="evenodd" fill="#E5E2E2" d="M520.065,510.309c-1.637,3.826-0.004,8.58,3.805,11.076
	c-5.887,3.332-12.595,3.662-18.992,5.008c-8.08,1.7-8.136,1.465-11.924-5.744c-0.382-0.727-0.628-1.523-0.984-2.266
	c-2.913-6.064-2.88-5.996,3.135-9.262c3.525-1.914,6.444-2.527,7.869,2.339c0.95,3.243,3.091,3.21,5.809,2.276
	C512.497,512.459,516.3,511.439,520.065,510.309z"/>
<path fill-rule="evenodd" clip-rule="evenodd" fill="#FBF7F7" d="M500.638,472.796c-2.939-2.907-5.514-6.046-6.473-10.209
	c7.449-4.323,14.932-8.588,22.324-13.007c1.937-1.158,2.655-0.851,3.704,1.163c4.611,8.845,4.734,8.869-4.303,13.832
	C510.828,467.355,506.091,470.744,500.638,472.796z"/>
<path fill-rule="evenodd" clip-rule="evenodd" fill="#FBF7F7" d="M404.16,526.534c0.252-2.255-0.617-4.989,1.884-5.88
	c2.246-0.801,3.226,1.751,4.637,3.047c3.526,3.239,5.689,7.34,7.114,11.777c0.944,2.939,1.098,6.102-2.544,7.607
	c-3.288,1.361-5.495-0.57-7.068-3.061C405.563,535.883,404.429,531.221,404.16,526.534z"/>
<path fill-rule="evenodd" clip-rule="evenodd" fill="#FBF7F7" d="M388.649,550.973c-0.085,3.799-1.849,4.99-5.481,3.699
	c-5.629-1.998-9.378-12.51-6.171-17.332c0.555-0.834,1.167-1.648,2.375-1.027C384.064,538.719,388.757,546.135,388.649,550.973z"/>
</svg>
